<?xml version="1.0" encoding="utf-8"?>
<!-- Generator: Adobe Illustrator 16.0.0, SVG Export Plug-In . SVG Version: 6.00 Build 0)  -->
<!DOCTYPE svg PUBLIC "-//W3C//DTD SVG 1.1//EN" "http://www.w3.org/Graphics/SVG/1.1/DTD/svg11.dtd">
<svg version="1.1" id="Icons" xmlns="http://www.w3.org/2000/svg" xmlns:xlink="http://www.w3.org/1999/xlink" x="0px" y="0px"
	 width="100px" height="100px" viewBox="0 0 100 100" enable-background="new 0 0 100 100" xml:space="preserve">
<path id="LinkedIn__x28_alt_x29_" fill="#3A3A3A" d="M87.877,5.608H11.174c-3.673,0-6.65,2.886-6.65,6.448v77.101
	c0,3.562,2.978,6.45,6.65,6.45h76.703c3.673,0,6.646-2.89,6.646-6.45V12.056C94.523,8.495,91.55,5.608,87.877,5.608z M31.809,80.943
	H18.211V40.31h13.598V80.943z M25.011,34.759H24.92c-4.56,0-7.516-3.119-7.516-7.023c0-3.983,3.043-7.017,7.693-7.017
	c4.651,0,7.512,3.033,7.602,7.017C32.699,31.641,29.749,34.759,25.011,34.759z M80.827,80.943H67.232V59.204
	c0-5.464-1.969-9.191-6.885-9.191c-3.762,0-5.994,2.515-6.974,4.942c-0.364,0.868-0.453,2.08-0.453,3.292v22.696H39.329
	c0,0,0.178-36.823,0-40.634h13.593v5.761c1.805-2.768,5.029-6.717,12.249-6.717c8.947,0,15.656,5.804,15.656,18.292V80.943z
	 M52.834,46.199c0.023-0.038,0.057-0.084,0.088-0.128v0.128H52.834z"/>
</svg>
