<?xml version="1.0" encoding="utf-8"?>
<!-- Generator: Adobe Illustrator 17.1.0, SVG Export Plug-In . SVG Version: 6.00 Build 0)  -->
<!DOCTYPE svg PUBLIC "-//W3C//DTD SVG 1.1//EN" "http://www.w3.org/Graphics/SVG/1.1/DTD/svg11.dtd">
<svg version="1.1" id="Layer_1" xmlns="http://www.w3.org/2000/svg" xmlns:xlink="http://www.w3.org/1999/xlink" x="0px" y="0px"
	 viewBox="0 0 370.8 267.2" enable-background="new 0 0 370.8 267.2" xml:space="preserve">
<path fill="#444444" d="M225.7,32.2c4.7,0,9.3,0,14,0c0.2,0.2,0.4,0.7,0.6,0.7c11,1.2,20.3,6,28.3,13.5c1.7,1.6,3.3,1.8,5.4,1.3
	c6.3-1.6,12.4-3.7,18.4-6.2c2.7-1.1,6.2-4.7,8.2-2.2c2,2.6-1.7,6-3.3,8.7c-3.7,6.1-8.9,11-14.6,15.5c8.9,0,16.7-3.8,26.3-6.2
	c-6.5,9.6-13.4,16.7-21.3,22.7c-2.4,1.8-3.2,3.7-3.2,6.7c0.2,10.3-0.6,20.7-3,30.7c-13.8,58.5-48.2,97.8-107.4,113.3
	c-5.7,1.5-11.6,2.3-17.5,3.5c-12,0-24,0-36,0c-0.5-1.2-1.6-0.9-2.6-1c-17.8-2.7-34.6-8.3-50.2-17.2c-1.5-0.8-3.3-1.3-4.4-4
	c13.2,0.9,25.6,0.3,37.7-3.5c12.4-3.9,23.9-9.1,35-18c-2.3-0.2-3.5-0.2-4.6-0.4c-19-2.6-32.5-12.6-40.8-29.8
	c-0.5-1.1-1.7-2.6-0.6-3.7c0.9-1,2.4-0.4,3.8-0.2c5.4,0.9,10.4-1.1,15.5-2.2c-0.8-0.8-1.5-1-2.3-1.3c-20.8-7.2-32.9-21.7-36.1-43.6
	c-0.2-1.6-0.7-3.9,0.1-4.8c1.3-1.3,2.9,0.7,4.4,1.2c5.1,1.8,10.1,4.4,16.2,2.8c-21.2-20.7-27-50.4-13.1-66.4
	c1.2,1.4,2.4,2.7,3.6,4.1c19.7,21.8,43.5,36.7,72,44.1c7.7,2,15.6,3,23.5,4.4c5.3,0.9,5.6,1.2,5-4.2c-3.1-28.8,13.2-51.2,41.9-57.6
	C225.1,33,225.4,32.5,225.7,32.2z"/>
</svg>
